<svg xmlns="http://www.w3.org/2000/svg" viewBox="0 0 200 200" fill="none">
  <!-- Main barrel body -->
  <path d="M100 25C145 25 175 35 175 50V150C175 165 145 175 100 175C55 175 25 165 25 150V50C25 35 55 25 100 25Z" fill="#8B2635"/>
  
  <!-- Top rim (lighter) -->
  <ellipse cx="100" cy="50" rx="75" ry="25" fill="#A63D4D"/>
  
  <!-- Inner top (darker hole) -->
  <ellipse cx="100" cy="50" rx="55" ry="18" fill="#5D1A23"/>
  
  <!-- Barrel metal bands -->
  <ellipse cx="100" cy="70" rx="77" ry="20" fill="none" stroke="#D4A574" stroke-width="6"/>
  <ellipse cx="100" cy="110" rx="80" ry="22" fill="none" stroke="#D4A574" stroke-width="6"/>
  <ellipse cx="100" cy="145" rx="77" ry="20" fill="none" stroke="#D4A574" stroke-width="6"/>
  
  <!-- Vertical wood grain lines -->
  <path d="M55 50V155" stroke="#6B1825" stroke-width="2" opacity="0.5"/>
  <path d="M75 45V160" stroke="#6B1825" stroke-width="2" opacity="0.5"/>
  <path d="M100 42V165" stroke="#6B1825" stroke-width="2" opacity="0.5"/>
  <path d="M125 45V160" stroke="#6B1825" stroke-width="2" opacity="0.5"/>
  <path d="M145 50V155" stroke="#6B1825" stroke-width="2" opacity="0.5"/>
  
  <!-- Subtle highlight on barrel -->
  <ellipse cx="60" cy="100" rx="8" ry="35" fill="rgba(255,255,255,0.1)"/>
  
  <!-- RB Text -->
  <text x="100" y="118" font-family="Georgia, serif" font-size="32" font-weight="bold" fill="#FFF5E6" text-anchor="middle" letter-spacing="2">RB</text>
</svg>
